{"title":"Next Gen 2018 1080p WEB-DL DD 5.1 x264 [MW]","magnet":"magnet:?xt=urn:btih:128031280b9dc5c49ec90f4dd6e1bb0106378758&dn=Next+Gen+2018+1080p+WEB-DL+DD+5.1+x264+%5BMW%5D&tr=udp%3A%2F%2Ftracker.leechers-paradise.org%3A6969&tr=udp%3A%2F%2Fzer0day.ch%3A1337&tr=udp%3A%2F%2Fopen.demonii.com%3A1337&tr=udp%3A%2F%2Ftracker.coppersurfer.tk%3A6969&tr=udp%3A%2F%2Fexodus.desync.com%3A6969","uploader":"MFreaky","categoryP":"video","categoryS":"hd___movies","size":"2192967452","seeders":"3","leechers":"8","description":" <a href=\"https://pichub.site/image/DXTcX\" rel=\"nofollow\" target=\"_NEW\">https://pichub.site/image/DXTcX</a> <a href=\"\nhttps://pichub.site/image/DXQHJ\" rel=\"nofollow\" target=\"_NEW\">\nhttps://pichub.site/image/DXQHJ</a> <a href=\"\nhttps://pichub.site/image/DXFv8\" rel=\"nofollow\" target=\"_NEW\">\nhttps://pichub.site/image/DXFv8</a> <a href=\"\nhttps://pichub.site/image/DXegh\" rel=\"nofollow\" target=\"_NEW\">\nhttps://pichub.site/image/DXegh</a> <a href=\"\nhttps://pichub.site/image/DXbS5\" rel=\"nofollow\" target=\"_NEW\">\nhttps://pichub.site/image/DXbS5</a>\r\n\r\nIMDB <a href=\"\nhttps://www.imdb.com/title/tt7133686/\" rel=\"nofollow\" target=\"_NEW\">\nhttps://www.imdb.com/title/tt7133686/</a>\r\n\r\nVideo\r\nID                                       : 1\r\nFormat                                   : AVC\r\nFormat/Info                              : Advanced Video Codec\r\nFormat profile                           : High@L4.1\r\nFormat settings                          : CABAC / 4 Ref Frames\r\nFormat settings, CABAC                   : Yes\r\nFormat settings, RefFrames               : 4 frames\r\nCodec ID                                 : V_MPEG4/ISO/AVC\r\nDuration                                 : 1 h 45 min\r\nBit rate                                 : 2 375 kb/s\r\nNominal bit rate                         : 2 500 kb/s\r\nWidth                                    : 1 920 pixels\r\nHeight                                   : 804 pixels\r\nDisplay aspect ratio                     : 2.40:1\r\nFrame rate mode                          : Constant\r\nFrame rate                               : 24.000 FPS\r\nColor space                              : YUV\r\nChroma subsampling                       : 4:2:0\r\nBit depth                                : 8 bits\r\nScan type                                : Progressive\r\nBits/(Pixel*Frame)                       : 0.064\r\nStream size                              : 1.76 GiB (86%)\r\nWriting library                          : x264 core 155 r2901 7d0ff22\r\nDefault                                  : Yes\r\nForced                                   : No\r\n\r\nAudio\r\nID                                       : 2\r\nFormat                                   : AC-3\r\nFormat/Info                              : Audio Coding 3\r\nCodec ID                                 : A_AC3\r\nDuration                                 : 1 h 45 min\r\nBit rate mode                            : Constant\r\nBit rate                                 : 384 kb/s\r\nChannel(s)                               : 6 channels\r\nChannel positions                        : Front: L C R, Side: L R, LFE\r\nSampling rate                            : 48.0 kHz\r\nFrame rate                               : 31.250 FPS (1536 SPF)\r\nBit depth                                : 16 bits\r\nCompression mode                         : Lossy\r\nStream size                              : 291 MiB (14%)\r\nLanguage                                 : English\r\nService kind                             : Complete Main\r\nDefault                                  : Yes\r\nForced                                   : No","last_updated":"2018-09-08T12:11:26.549Z","parsed":{"xt":"urn:btih:128031280b9dc5c49ec90f4dd6e1bb0106378758","dn":"Next Gen 2018 1080p WEB-DL DD 5.1 x264 [MW]","tr":["udp://exodus.desync.com:6969","udp://open.demonii.com:1337","udp://tracker.coppersurfer.tk:6969","udp://tracker.leechers-paradise.org:6969","udp://zer0day.ch:1337"],"infoHash":"128031280b9dc5c49ec90f4dd6e1bb0106378758","infoHashBuffer":{"type":"Buffer","data":[18,128,49,40,11,157,197,196,158,201,15,77,214,225,187,1,6,55,135,88]},"name":"Next Gen 2018 1080p WEB-DL DD 5.1 x264 [MW]","announce":["udp://exodus.desync.com:6969","udp://open.demonii.com:1337","udp://tracker.coppersurfer.tk:6969","udp://tracker.leechers-paradise.org:6969","udp://zer0day.ch:1337"],"urlList":[]}}